<?xml version="1.0" encoding="UTF-8" standalone="no"?>
<svg
   version="1.0"
   width="283.27097pt"
   height="792.12823pt"
   viewBox="0 0 283.27097 792.12824"
   preserveAspectRatio="xMidYMid"
   id="svg15"
   xmlns="http://www.w3.org/2000/svg"
   xmlns:svg="http://www.w3.org/2000/svg">
  <defs
     id="defs15" />
  <g
     transform="matrix(0.1,0,0,-0.1,-138.13079,809.13298)"
     fill="#000000"
     stroke="none"
     id="g15">
    <path
       d="m 2455,8062 c -62,-30 -129,-94 -162,-153 -13,-25 -18,-56 -18,-114 0,-101 28,-160 112,-234 51,-46 139,-91 178,-91 8,0 16,-4 20,-10 3,-5 -25,-19 -62,-31 -56,-18 -105,-23 -283,-30 -120,-4 -244,-14 -280,-23 -154,-34 -257,-92 -362,-204 -275,-293 -290,-704 -35,-965 123,-126 205,-170 439,-233 126,-33 184,-60 236,-107 l 22,-21 -29,-30 c -66,-70 -96,-168 -67,-224 9,-18 20,-32 25,-32 4,0 13,18 20,40 26,87 91,128 185,116 81,-11 123,-27 166,-63 l 40,-34 -39,-37 c -43,-41 -66,-105 -56,-152 3,-15 19,-48 35,-73 24,-39 27,-47 14,-58 -20,-16 -17,-43 6,-64 19,-17 20,-31 20,-305 0,-273 1,-288 20,-305 19,-18 19,-18 -10,-52 -37,-41 -38,-72 -4,-122 l 25,-39 -25,-37 c -32,-47 -33,-72 -1,-115 31,-42 31,-45 0,-82 -34,-40 -32,-79 5,-121 29,-33 29,-34 10,-53 -19,-19 -20,-40 -19,-804 0,-1142 2,-1070 -21,-1102 -24,-32 -25,-51 -6,-67 13,-11 10,-19 -15,-58 -16,-26 -32,-61 -35,-79 -7,-39 10,-98 43,-140 20,-28 22,-33 8,-44 -20,-17 -19,-37 5,-67 19,-25 20,-41 20,-613 0,-574 0,-587 -20,-605 -28,-25 -25,-50 10,-82 16,-14 43,-50 59,-78 22,-39 41,-58 74,-74 51,-25 140,-28 190,-7 38,15 84,66 93,101 3,13 21,33 38,43 42,25 50,54 25,87 -15,19 -19,37 -17,77 l 3,53 85,3 c 46,2 90,8 97,14 8,7 13,36 13,82 0,44 5,79 13,90 16,22 91,32 130,17 26,-10 27,-13 27,-84 0,-112 6,-117 140,-117 126,0 118,-8 122,115 3,63 5,71 29,84 21,12 37,13 75,5 l 49,-9 8,-84 c 4,-46 12,-90 18,-98 15,-17 190,-18 207,-1 9,9 12,127 12,468 0,430 -1,458 -18,473 -15,13 -39,17 -111,17 -89,0 -92,-1 -101,-26 -6,-14 -10,-56 -10,-94 v -69 l -43,-6 c -23,-4 -58,-5 -77,-3 l -35,3 -5,85 c -3,47 -9,91 -13,98 -11,17 -218,17 -235,0 -7,-7 -12,-42 -12,-88 0,-46 -5,-81 -12,-88 -7,-7 -38,-12 -69,-12 -80,0 -89,12 -89,110 0,92 3,90 -116,90 h -84 v 53 c 0,41 5,58 20,72 25,23 25,37 1,59 -19,17 -19,19 16,64 32,43 35,51 31,103 -4,51 -10,67 -53,125 -7,9 -4,23 8,43 16,27 16,30 -3,54 -20,25 -20,42 -20,950 0,909 0,925 -20,950 -25,32 -25,33 5,69 33,39 33,87 -1,127 l -26,31 26,31 c 34,40 34,88 1,127 -14,17 -25,34 -25,39 0,5 11,20 25,33 35,33 34,85 -2,122 -26,27 -26,28 -7,49 18,20 19,41 22,312 2,243 5,293 17,300 18,10 19,40 4,65 -9,14 -5,27 20,67 22,35 31,61 31,93 0,52 -11,75 -59,125 l -36,39 37,32 c 57,50 172,76 245,57 47,-13 103,-69 103,-104 0,-12 5,-29 10,-37 9,-13 13,-12 30,9 41,49 18,157 -50,234 -31,36 -32,39 -16,56 32,35 131,79 249,110 207,54 294,100 413,219 87,87 127,149 160,247 25,70 28,95 28,205 1,190 -41,310 -162,469 -70,92 -142,151 -247,202 -112,55 -195,70 -435,78 -181,6 -211,10 -255,29 l -49,23 53,31 c 124,70 201,182 209,305 5,86 -15,138 -83,208 -104,109 -294,129 -408,42 l -33,-25 -59,37 c -53,33 -65,36 -144,39 -78,3 -92,0 -146,-26 z m 631,-320 c -25,-49 -96,-109 -172,-147 l -70,-35 -83,30 c -151,55 -225,102 -248,158 -19,46 -10,50 31,14 19,-16 48,-33 64,-37 42,-9 102,10 147,45 21,17 40,30 42,30 2,0 21,-13 41,-29 84,-66 176,-64 229,6 25,33 28,34 31,16 2,-12 -4,-35 -12,-51 z m -131,-367 c 51,-25 74,-53 60,-75 -4,-6 -32,-23 -63,-39 -31,-16 -81,-45 -109,-64 -51,-35 -53,-35 -75,-17 -13,9 -58,39 -100,64 -86,52 -96,62 -79,79 13,13 250,75 289,76 13,1 47,-10 77,-24 z m -855,-171 c 25,-10 47,-28 55,-45 26,-50 84,-66 107,-29 35,56 66,-6 43,-85 -14,-47 -14,-58 -2,-88 8,-19 25,-42 38,-51 48,-33 147,-12 189,41 10,13 22,49 25,79 7,49 10,54 32,54 24,0 83,-26 83,-36 0,-3 -11,-25 -25,-48 -38,-65 -55,-131 -62,-236 -7,-116 15,-250 54,-340 l 27,-63 -44,-39 c -55,-49 -146,-103 -197,-117 -63,-18 -149,-13 -193,9 -33,17 -40,26 -40,50 0,36 33,56 111,66 74,9 89,19 89,55 0,52 -47,117 -107,148 -39,20 -114,13 -173,-17 -78,-39 -120,-103 -120,-181 0,-34 8,-73 21,-100 23,-52 19,-71 -15,-71 -99,0 -286,132 -337,237 -45,93 -18,202 70,287 39,38 41,39 95,33 39,-4 58,-2 66,8 15,18 2,126 -20,170 -12,23 -16,49 -13,86 4,44 1,58 -16,75 -11,12 -26,24 -33,27 -20,7 34,59 95,92 84,46 135,54 197,29 z m 1584,-18 c 28,-14 66,-41 84,-59 l 34,-35 -36,-47 c -39,-51 -46,-88 -18,-104 16,-9 16,-11 0,-38 -39,-62 -59,-115 -56,-146 l 3,-32 72,-3 c 70,-3 72,-4 111,-46 117,-126 116,-250 -1,-370 -79,-80 -234,-158 -281,-140 -22,8 -20,47 4,94 11,22 20,58 20,81 0,122 -161,230 -283,190 -69,-23 -152,-150 -120,-182 5,-5 36,-14 69,-19 81,-13 113,-28 120,-56 9,-35 -2,-53 -41,-69 -69,-29 -199,-14 -294,34 -52,27 -141,108 -141,128 0,8 8,27 19,41 34,48 63,161 68,267 7,124 -11,201 -67,299 -22,38 -39,70 -38,71 2,1 14,9 28,18 13,9 42,17 62,17 36,0 38,-2 32,-25 -10,-41 22,-112 64,-140 98,-67 226,6 201,114 -12,51 -11,109 2,116 6,4 20,-2 32,-12 41,-37 45,-36 105,20 31,30 64,57 72,60 29,13 123,-2 174,-27 z M 2863,6138 c 40,-29 95,-68 120,-85 36,-25 47,-39 47,-58 0,-36 -17,-65 -39,-65 -10,0 -32,-20 -50,-45 -39,-55 -76,-75 -135,-75 -62,0 -91,16 -132,72 -26,37 -39,48 -53,43 -31,-9 -56,45 -42,93 5,19 183,170 203,171 4,1 40,-23 81,-51 z m 867,-4934 c 10,-11 -19,-39 -44,-42 -39,-5 -53,-38 -28,-71 17,-23 27,-26 91,-29 39,-2 71,-7 71,-12 0,-24 -34,-40 -85,-40 -71,0 -85,-7 -85,-40 0,-32 13,-45 53,-55 19,-5 27,-13 25,-24 -3,-14 -28,-16 -201,-19 -185,-2 -198,-1 -195,15 2,10 19,23 38,29 26,8 36,18 38,35 4,44 -12,53 -93,57 -71,4 -76,6 -73,26 3,19 11,22 73,26 80,6 95,13 95,43 0,32 -13,47 -45,55 -34,9 -41,24 -22,43 11,11 52,13 198,11 101,-2 186,-6 189,-8 z"
       id="path4" />
  </g>
</svg>
