999
"DXF R12 Output" (www.mydxf.blogspot.com)
 0 
SECTION
 2 
HEADER
 9 
$ACADVER
 1 
AC1009
 9 
$EXTMIN
 10 
 0 
 20 
 0 
 9 
$EXTMAX
 10 
 8.5 
 20 
 11 
 0 
ENDSEC
 0 
SECTION
 2 
ENTITIES
0
LINE
8
Layer 1
10
20.788359
20
8.923028
11
20.290620
21
8.822468
0
LINE
8
Layer 1
10
20.290620
20
8.822468
11
19.884203
21
8.548347
0
LINE
8
Layer 1
10
19.884203
20
8.548347
11
19.610245
21
8.141818
0
LINE
8
Layer 1
10
19.610245
20
8.141818
11
19.509886
21
7.644039
0
LINE
8
Layer 1
10
19.509886
20
7.644039
11
19.723505
21
6.938321
0
LINE
8
Layer 1
10
19.723505
20
6.938321
11
20.291234
21
6.467885
0
LINE
8
Layer 1
10
20.291234
20
6.467885
11
20.291234
21
3.968298
0
LINE
8
Layer 1
10
20.291234
20
3.968298
11
18.203905
21
4.830918
0
LINE
8
Layer 1
10
18.203905
20
4.830918
11
15.882022
21
5.539186
0
LINE
8
Layer 1
10
15.882022
20
5.539186
11
13.352750
21
6.012234
0
LINE
8
Layer 1
10
13.352750
20
6.012234
11
10.643255
21
6.169195
0
LINE
8
Layer 1
10
10.643255
20
6.169195
11
7.581527
21
5.880610
0
LINE
8
Layer 1
10
7.581527
20
5.880610
11
5.153372
21
5.176505
0
LINE
8
Layer 1
10
5.153372
20
5.176505
11
3.289333
21
4.196811
0
LINE
8
Layer 1
10
3.289333
20
4.196811
11
1.919958
21
3.081458
0
LINE
8
Layer 1
10
1.919958
20
3.081458
11
0.975790
21
1.970377
0
LINE
8
Layer 1
10
0.975790
20
1.970377
11
0.387376
21
1.003501
0
LINE
8
Layer 1
10
0.387376
20
1.003501
11
-0.000009
21
0.062082
0
LINE
8
Layer 1
10
-0.000009
20
0.062082
11
26.366825
21
0.062082
0
LINE
8
Layer 1
10
26.366825
20
0.062082
11
24.203134
21
1.731744
0
LINE
8
Layer 1
10
24.203134
20
1.731744
11
24.203134
21
4.456123
0
LINE
8
Layer 1
10
24.203134
20
4.456123
11
24.771846
21
4.907897
0
LINE
8
Layer 1
10
24.771846
20
4.907897
11
24.988098
21
5.601270
0
LINE
8
Layer 1
10
24.988098
20
5.601270
11
24.891087
21
6.081816
0
LINE
8
Layer 1
10
24.891087
20
6.081816
11
24.626513
21
6.474234
0
LINE
8
Layer 1
10
24.626513
20
6.474234
11
24.234096
21
6.738808
0
LINE
8
Layer 1
10
24.234096
20
6.738808
11
23.753551
21
6.835820
0
LINE
8
Layer 1
10
23.753551
20
6.835820
11
23.273006
21
6.738808
0
LINE
8
Layer 1
10
23.273006
20
6.738808
11
22.880587
21
6.474234
0
LINE
8
Layer 1
10
22.880587
20
6.474234
11
22.616014
21
6.081816
0
LINE
8
Layer 1
10
22.616014
20
6.081816
11
22.519002
21
5.601270
0
LINE
8
Layer 1
10
22.519002
20
5.601270
11
22.719456
21
4.934670
0
LINE
8
Layer 1
10
22.719456
20
4.934670
11
23.248672
21
4.482478
0
LINE
8
Layer 1
10
23.248672
20
4.482478
11
23.248672
21
2.356511
0
LINE
8
Layer 1
10
23.248672
20
2.356511
11
21.286003
21
3.479439
0
LINE
8
Layer 1
10
21.286003
20
3.479439
11
21.286003
21
6.468401
0
LINE
8
Layer 1
10
21.286003
20
6.468401
11
21.853314
21
6.938730
0
LINE
8
Layer 1
10
21.853314
20
6.938730
11
22.066835
21
7.644039
0
LINE
8
Layer 1
10
22.066835
20
7.644039
11
21.966476
21
8.141818
0
LINE
8
Layer 1
10
21.966476
20
8.141818
11
21.692518
21
8.548347
0
LINE
8
Layer 1
10
21.692518
20
8.548347
11
21.286099
21
8.822468
0
LINE
8
Layer 1
10
21.286099
20
8.822468
11
20.788359
21
8.923028
0
LINE
8
Layer 1
10
20.788359
20
8.923028
11
20.788359
21
8.923028
0
LINE
8
Layer 1
10
30.069436
20
13.296399
11
29.861180
21
13.210100
0
LINE
8
Layer 1
10
29.861180
20
13.210100
11
29.083452
21
12.432369
0
LINE
8
Layer 1
10
29.083452
20
12.432369
11
28.997258
21
12.224114
0
LINE
8
Layer 1
10
28.997258
20
12.224114
11
29.083452
21
12.015860
0
LINE
8
Layer 1
10
29.083452
20
12.015860
11
29.861180
21
11.238129
0
LINE
8
Layer 1
10
29.861180
20
11.238129
11
30.069436
21
11.151936
0
LINE
8
Layer 1
10
30.069436
20
11.151936
11
30.277692
21
11.238129
0
LINE
8
Layer 1
10
30.277692
20
11.238129
11
30.364143
21
11.446644
0
LINE
8
Layer 1
10
30.364143
20
11.446644
11
30.277692
21
11.655157
0
LINE
8
Layer 1
10
30.277692
20
11.655157
11
29.708219
21
12.224113
0
LINE
8
Layer 1
10
29.708219
20
12.224113
11
30.277692
21
12.793588
0
LINE
8
Layer 1
10
30.277692
20
12.793588
11
30.363885
21
13.001843
0
LINE
8
Layer 1
10
30.363885
20
13.001843
11
30.277692
21
13.210100
0
LINE
8
Layer 1
10
30.277692
20
13.210100
11
30.069436
21
13.296399
0
LINE
8
Layer 1
10
30.069436
20
13.296399
11
30.069436
21
13.296399
0
LINE
8
Layer 1
10
27.285631
20
16.653296
11
27.220001
21
16.643480
0
LINE
8
Layer 1
10
27.220001
20
16.643480
11
27.041202
21
16.506537
0
LINE
8
Layer 1
10
27.041202
20
16.506537
11
27.011746
21
16.282779
0
LINE
8
Layer 1
10
27.011746
20
16.282779
11
27.296482
21
15.220312
0
LINE
8
Layer 1
10
27.296482
20
15.220312
11
27.433738
21
15.041543
0
LINE
8
Layer 1
10
27.433738
20
15.041543
11
27.657183
21
15.012056
0
LINE
8
Layer 1
10
27.657183
20
15.012056
11
28.719650
21
15.296795
0
LINE
8
Layer 1
10
28.719650
20
15.296795
11
28.898419
21
15.434049
0
LINE
8
Layer 1
10
28.898419
20
15.434049
11
28.927906
21
15.657496
0
LINE
8
Layer 1
10
28.927906
20
15.657496
11
28.631801
21
15.876086
0
LINE
8
Layer 1
10
28.631801
20
15.876086
11
28.566687
21
15.866270
0
LINE
8
Layer 1
10
28.566687
20
15.866270
11
27.788958
21
15.658014
0
LINE
8
Layer 1
10
27.788958
20
15.658014
11
27.580702
21
16.435227
0
LINE
8
Layer 1
10
27.580702
20
16.435227
11
27.285631
21
16.653301
0
LINE
8
Layer 1
10
27.285631
20
16.653301
11
27.285631
21
16.653296
0
LINE
8
Layer 1
10
24.334393
20
16.708073
11
24.064124
21
16.489998
0
LINE
8
Layer 1
10
24.064124
20
16.489998
11
23.855868
21
15.712270
0
LINE
8
Layer 1
10
23.855868
20
15.712270
11
23.078656
21
15.920526
0
LINE
8
Layer 1
10
23.078656
20
15.920526
11
23.013545
21
15.930342
0
LINE
8
Layer 1
10
23.013545
20
15.930342
11
22.988224
21
15.930342
0
LINE
8
Layer 1
10
22.988224
20
15.930342
11
22.717955
21
15.712267
0
LINE
8
Layer 1
10
22.717955
20
15.712267
11
22.747411
21
15.489025
0
LINE
8
Layer 1
10
22.747411
20
15.489025
11
22.926211
21
15.352082
0
LINE
8
Layer 1
10
22.926211
20
15.352082
11
23.988160
21
15.066830
0
LINE
8
Layer 1
10
23.988160
20
15.066830
11
24.211607
21
15.096315
0
LINE
8
Layer 1
10
24.211607
20
15.096315
11
24.348863
21
15.275083
0
LINE
8
Layer 1
10
24.348863
20
15.275083
11
24.633599
21
16.337551
0
LINE
8
Layer 1
10
24.633599
20
16.337551
11
24.604113
21
16.560997
0
LINE
8
Layer 1
10
24.604113
20
16.560997
11
24.425344
21
16.698251
0
LINE
8
Layer 1
10
24.425344
20
16.698251
11
24.360230
21
16.708068
0
LINE
8
Layer 1
10
24.360230
20
16.708068
11
24.334406
21
16.708068
0
LINE
8
Layer 1
10
24.334406
20
16.708068
11
24.334393
21
16.708073
0
LINE
8
Layer 1
10
21.481858
20
13.405953
11
21.448269
21
13.403836
0
LINE
8
Layer 1
10
21.448269
20
13.403836
11
21.273086
21
13.319603
0
LINE
8
Layer 1
10
21.273086
20
13.319603
11
21.186633
21
13.111088
0
LINE
8
Layer 1
10
21.186633
20
13.111088
11
21.273086
21
12.902576
0
LINE
8
Layer 1
10
21.273086
20
12.902576
11
21.842042
21
12.333619
0
LINE
8
Layer 1
10
21.842042
20
12.333619
11
21.273086
21
11.764144
0
LINE
8
Layer 1
10
21.273086
20
11.764144
11
21.186893
21
11.555889
0
LINE
8
Layer 1
10
21.186893
20
11.555889
11
21.273086
21
11.347632
0
LINE
8
Layer 1
10
21.273086
20
11.347632
11
21.481342
21
11.261333
0
LINE
8
Layer 1
10
21.481342
20
11.261333
11
21.689595
21
11.347632
0
LINE
8
Layer 1
10
21.689595
20
11.347632
11
22.467326
21
12.125363
0
LINE
8
Layer 1
10
22.467326
20
12.125363
11
22.531921
21
12.223031
0
LINE
8
Layer 1
10
22.531921
20
12.223031
11
22.505050
21
12.495882
0
LINE
8
Layer 1
10
22.505050
20
12.495882
11
22.467326
21
12.541875
0
LINE
8
Layer 1
10
22.467326
20
12.541875
11
21.689595
21
13.319603
0
LINE
8
Layer 1
10
21.689595
20
13.319603
11
21.481858
21
13.405902
0
LINE
8
Layer 1
10
21.481858
20
13.405902
11
21.481858
21
13.405953
0
LINE
8
Layer 1
10
23.958706
20
9.555548
11
23.893593
21
9.545732
0
LINE
8
Layer 1
10
23.893593
20
9.545732
11
22.831128
21
9.260995
0
LINE
8
Layer 1
10
22.831128
20
9.260995
11
22.652358
21
9.123739
0
LINE
8
Layer 1
10
22.652358
20
9.123739
11
22.622872
21
8.900292
0
LINE
8
Layer 1
10
22.622872
20
8.900292
11
22.760174
21
8.720978
0
LINE
8
Layer 1
10
22.760174
20
8.720978
11
22.984089
21
8.691520
0
LINE
8
Layer 1
10
22.984089
20
8.691520
11
23.761301
21
8.899776
0
LINE
8
Layer 1
10
23.761301
20
8.899776
11
23.969557
21
8.122563
0
LINE
8
Layer 1
10
23.969557
20
8.122563
11
24.106813
21
7.943793
0
LINE
8
Layer 1
10
24.106813
20
7.943793
11
24.330258
21
7.914308
0
LINE
8
Layer 1
10
24.330258
20
7.914308
11
24.509058
21
8.051250
0
LINE
8
Layer 1
10
24.509058
20
8.051250
11
24.538514
21
8.275008
0
LINE
8
Layer 1
10
24.538514
20
8.275008
11
24.254293
21
9.337476
0
LINE
8
Layer 1
10
24.254293
20
9.337476
11
24.144740
21
9.498189
0
LINE
8
Layer 1
10
24.144740
20
9.498189
11
24.057925
21
9.542115
0
LINE
8
Layer 1
10
24.057925
20
9.542115
11
23.958706
21
9.555556
0
LINE
8
Layer 1
10
23.958706
20
9.555556
11
23.958706
21
9.555548
0
LINE
8
Layer 1
10
23.958706
20
9.555548
11
24.254293
21
9.337473
0
LINE
8
Layer 1
10
24.254293
20
9.337473
11
24.538514
21
8.275006
0
LINE
8
Layer 1
10
24.538514
20
8.275006
11
24.509058
21
8.051248
0
LINE
8
Layer 1
10
24.509058
20
8.051248
11
24.330258
21
7.914305
0
LINE
8
Layer 1
10
24.330258
20
7.914305
11
24.106813
21
7.943791
0
LINE
8
Layer 1
10
24.106813
20
7.943791
11
23.969557
21
8.122561
0
LINE
8
Layer 1
10
23.969557
20
8.122561
11
23.761301
21
8.899773
0
LINE
8
Layer 1
10
23.761301
20
8.899773
11
22.984089
21
8.691517
0
LINE
8
Layer 1
10
22.984089
20
8.691517
11
22.760174
21
8.720975
0
LINE
8
Layer 1
10
22.760174
20
8.720975
11
22.622872
21
8.900289
0
LINE
8
Layer 1
10
22.622872
20
8.900289
11
22.652358
21
9.123737
0
LINE
8
Layer 1
10
22.652358
20
9.123737
11
22.831128
21
9.260993
0
LINE
8
Layer 1
10
22.831128
20
9.260993
11
23.893593
21
9.545729
0
LINE
8
Layer 1
10
23.893593
20
9.545729
11
23.958706
21
9.555545
0
LINE
8
Layer 1
10
23.958706
20
9.555545
11
23.958706
21
9.555548
0
LINE
8
Layer 1
10
29.858079
20
11.053127
11
29.836383
21
11.052598
0
LINE
8
Layer 1
10
29.836383
20
11.052598
11
29.779540
21
11.043285
0
LINE
8
Layer 1
10
29.779540
20
11.043285
11
28.717589
21
10.758548
0
LINE
8
Layer 1
10
28.717589
20
10.758548
11
28.538820
21
10.621294
0
LINE
8
Layer 1
10
28.538820
20
10.621294
11
28.509336
21
10.397848
0
LINE
8
Layer 1
10
28.509336
20
10.397848
11
28.794072
21
9.335383
0
LINE
8
Layer 1
10
28.794072
20
9.335383
11
28.931472
21
9.156936
0
LINE
8
Layer 1
10
28.931472
20
9.156936
11
29.154773
21
9.127643
0
LINE
8
Layer 1
10
29.154773
20
9.127643
11
29.333866
21
9.264753
0
LINE
8
Layer 1
10
29.333866
20
9.264753
11
29.363544
21
9.488344
0
LINE
8
Layer 1
10
29.363544
20
9.488344
11
29.154773
21
10.266072
0
LINE
8
Layer 1
10
29.154773
20
10.266072
11
29.931985
21
10.474328
0
LINE
8
Layer 1
10
29.931985
20
10.474328
11
30.110754
21
10.611584
0
LINE
8
Layer 1
10
30.110754
20
10.611584
11
30.140241
21
10.835029
0
LINE
8
Layer 1
10
30.140241
20
10.835029
11
30.003298
21
11.013831
0
LINE
8
Layer 1
10
30.003298
20
11.013831
11
29.858087
21
11.053103
0
LINE
8
Layer 1
10
29.858087
20
11.053103
11
29.858079
21
11.053127
0
LINE
8
Layer 1
10
29.129444
20
15.347434
11
28.984749
21
15.307643
0
LINE
8
Layer 1
10
28.984749
20
15.307643
11
28.847290
21
15.128843
0
LINE
8
Layer 1
10
28.847290
20
15.128843
11
28.563070
21
14.066894
0
LINE
8
Layer 1
10
28.563070
20
14.066894
11
28.592556
21
13.843448
0
LINE
8
Layer 1
10
28.592556
20
13.843448
11
28.771326
21
13.706193
0
LINE
8
Layer 1
10
28.771326
20
13.706193
11
29.833790
21
13.421457
0
LINE
8
Layer 1
10
29.833790
20
13.421457
11
30.057383
21
13.451134
0
LINE
8
Layer 1
10
30.057383
20
13.451134
11
30.194494
21
13.630229
0
LINE
8
Layer 1
10
30.194494
20
13.630229
11
30.164813
21
13.853819
0
LINE
8
Layer 1
10
30.164813
20
13.853819
11
29.985719
21
13.990930
0
LINE
8
Layer 1
10
29.985719
20
13.990930
11
29.207991
21
14.199186
0
LINE
8
Layer 1
10
29.207991
20
14.199186
11
29.416247
21
14.976914
0
LINE
8
Layer 1
10
29.416247
20
14.976914
11
29.386540
21
15.200037
0
LINE
8
Layer 1
10
29.386540
20
15.200037
11
29.207991
21
15.337099
0
LINE
8
Layer 1
10
29.207991
20
15.337099
11
29.151148
21
15.346915
0
LINE
8
Layer 1
10
29.151148
20
15.346915
11
29.129452
21
15.347444
0
LINE
8
Layer 1
10
29.129452
20
15.347444
11
29.129444
21
15.347434
0
LINE
8
Layer 1
10
29.129444
20
15.347434
11
29.151140
21
15.346904
0
LINE
8
Layer 1
10
29.151140
20
15.346904
11
29.207983
21
15.337088
0
LINE
8
Layer 1
10
29.207983
20
15.337088
11
29.386532
21
15.200026
0
LINE
8
Layer 1
10
29.386532
20
15.200026
11
29.416239
21
14.976904
0
LINE
8
Layer 1
10
29.416239
20
14.976904
11
29.207983
21
14.199175
0
LINE
8
Layer 1
10
29.207983
20
14.199175
11
29.985711
21
13.990919
0
LINE
8
Layer 1
10
29.985711
20
13.990919
11
30.164805
21
13.853808
0
LINE
8
Layer 1
10
30.164805
20
13.853808
11
30.194486
21
13.630218
0
LINE
8
Layer 1
10
30.194486
20
13.630218
11
30.057375
21
13.451124
0
LINE
8
Layer 1
10
30.057375
20
13.451124
11
29.833783
21
13.421447
0
LINE
8
Layer 1
10
29.833783
20
13.421447
11
28.771318
21
13.706183
0
LINE
8
Layer 1
10
28.771318
20
13.706183
11
28.592548
21
13.843438
0
LINE
8
Layer 1
10
28.592548
20
13.843438
11
28.563062
21
14.066884
0
LINE
8
Layer 1
10
28.563062
20
14.066884
11
28.847282
21
15.128832
0
LINE
8
Layer 1
10
28.847282
20
15.128832
11
28.984741
21
15.307632
0
LINE
8
Layer 1
10
28.984741
20
15.307632
11
29.129436
21
15.347423
0
LINE
8
Layer 1
10
29.129436
20
15.347423
11
29.129444
21
15.347434
0
LINE
8
Layer 1
10
25.825773
20
15.377924
11
25.616156
21
15.294960
0
LINE
8
Layer 1
10
25.616156
20
15.294960
11
25.526567
21
15.088018
0
LINE
8
Layer 1
10
25.526567
20
15.088018
11
25.498662
21
13.384249
0
LINE
8
Layer 1
10
25.498662
20
13.384249
11
24.671324
21
14.873563
0
LINE
8
Layer 1
10
24.671324
20
14.873563
11
24.418626
21
15.025492
0
LINE
8
Layer 1
10
24.418626
20
15.025492
11
24.270314
21
14.988283
0
LINE
8
Layer 1
10
24.270314
20
14.988283
11
24.130349
21
14.811667
0
LINE
8
Layer 1
10
24.130349
20
14.811667
11
24.156109
21
14.587792
0
LINE
8
Layer 1
10
24.156109
20
14.587792
11
24.987582
21
13.090210
0
LINE
8
Layer 1
10
24.987582
20
13.090210
11
23.586637
21
13.922718
0
LINE
8
Layer 1
10
23.586637
20
13.922718
11
23.439875
21
13.964059
0
LINE
8
Layer 1
10
23.439875
20
13.964059
11
23.183044
21
13.819879
0
LINE
8
Layer 1
10
23.183044
20
13.819879
11
23.150477
21
13.596627
0
LINE
8
Layer 1
10
23.150477
20
13.596627
11
23.285361
21
13.415771
0
LINE
8
Layer 1
10
23.285361
20
13.415771
11
24.677523
21
12.588433
0
LINE
8
Layer 1
10
24.677523
20
12.588433
11
23.057987
21
12.609097
0
LINE
8
Layer 1
10
23.057987
20
12.609097
11
22.848676
21
12.525319
0
LINE
8
Layer 1
10
22.848676
20
12.525319
11
22.759815
21
12.318159
0
LINE
8
Layer 1
10
22.759815
20
12.318159
11
22.843235
21
12.108697
0
LINE
8
Layer 1
10
22.843235
20
12.108697
11
23.050234
21
12.019472
0
LINE
8
Layer 1
10
23.050234
20
12.019472
11
24.685275
21
11.998278
0
LINE
8
Layer 1
10
24.685275
20
11.998278
11
23.193895
21
11.150269
0
LINE
8
Layer 1
10
23.193895
20
11.150269
11
23.055817
21
10.972271
0
LINE
8
Layer 1
10
23.055817
20
10.972271
11
23.083826
21
10.748743
0
LINE
8
Layer 1
10
23.083826
20
10.748743
11
23.261587
21
10.610072
0
LINE
8
Layer 1
10
23.261587
20
10.610072
11
23.485349
21
10.637639
0
LINE
8
Layer 1
10
23.485349
20
10.637639
11
24.963294
21
11.478415
0
LINE
8
Layer 1
10
24.963294
20
11.478415
11
24.103399
21
10.011321
0
LINE
8
Layer 1
10
24.103399
20
10.011321
11
24.072661
21
9.787960
0
LINE
8
Layer 1
10
24.072661
20
9.787960
11
24.208819
21
9.608247
0
LINE
8
Layer 1
10
24.208819
20
9.608247
11
24.432065
21
9.577287
0
LINE
8
Layer 1
10
24.432065
20
9.577287
11
24.611896
21
9.713149
0
LINE
8
Layer 1
10
24.611896
20
9.713149
11
25.470756
21
11.177140
0
LINE
8
Layer 1
10
25.470756
20
11.177140
11
25.456812
21
9.554503
0
LINE
8
Layer 1
10
25.456812
20
9.554503
11
25.541132
21
9.345164
0
LINE
8
Layer 1
10
25.541132
20
9.345164
11
25.748782
21
9.256847
0
LINE
8
Layer 1
10
25.748782
20
9.256847
11
25.957787
21
9.341342
0
LINE
8
Layer 1
10
25.957787
20
9.341342
11
26.045922
21
9.548819
0
LINE
8
Layer 1
10
26.045922
20
9.548819
11
26.060395
21
11.199362
0
LINE
8
Layer 1
10
26.060395
20
11.199362
11
27.462445
21
8.616920
0
LINE
8
Layer 1
10
27.462445
20
8.616920
11
28.648566
21
5.946371
0
LINE
8
Layer 1
10
28.648566
20
5.946371
11
29.469614
21
3.173160
0
LINE
8
Layer 1
10
29.469614
20
3.173160
11
29.696628
21
1.743506
0
LINE
8
Layer 1
10
29.696628
20
1.743506
11
29.776442
21
0.282728
0
LINE
8
Layer 1
10
29.776442
20
0.282728
11
29.862913
21
0.082835
0
LINE
8
Layer 1
10
29.862913
20
0.082835
11
30.072032
21
0.000059
0
LINE
8
Layer 1
10
30.072032
20
0.000059
11
30.280812
21
0.083009
0
LINE
8
Layer 1
10
30.280812
20
0.083009
11
30.367103
21
0.282728
0
LINE
8
Layer 1
10
30.367103
20
0.282728
11
30.285306
21
1.795758
0
LINE
8
Layer 1
10
30.285306
20
1.795758
11
30.053002
21
3.271190
0
LINE
8
Layer 1
10
30.053002
20
3.271190
11
29.215396
21
6.116716
0
LINE
8
Layer 1
10
29.215396
20
6.116716
11
28.011324
21
8.834221
0
LINE
8
Layer 1
10
28.011324
20
8.834221
11
26.597829
21
11.438622
0
LINE
8
Layer 1
10
26.597829
20
11.438622
11
28.019963
21
10.580796
0
LINE
8
Layer 1
10
28.019963
20
10.580796
11
28.242929
21
10.546865
0
LINE
8
Layer 1
10
28.242929
20
10.546865
11
28.424587
21
10.680531
0
LINE
8
Layer 1
10
28.424587
20
10.680531
11
28.458295
21
10.903615
0
LINE
8
Layer 1
10
28.458295
20
10.903615
11
28.324337
21
11.085158
0
LINE
8
Layer 1
10
28.324337
20
11.085158
11
26.870162
21
11.962621
0
LINE
8
Layer 1
10
26.870162
20
11.962621
11
28.568248
21
11.929548
0
LINE
8
Layer 1
10
28.568248
20
11.929548
11
28.778174
21
12.011825
0
LINE
8
Layer 1
10
28.778174
20
12.011825
11
28.868489
21
12.218419
0
LINE
8
Layer 1
10
28.868489
20
12.218419
11
28.786211
21
12.428345
0
LINE
8
Layer 1
10
28.786211
20
12.428345
11
28.579617
21
12.518660
0
LINE
8
Layer 1
10
28.579617
20
12.518660
11
26.870162
21
12.552249
0
LINE
8
Layer 1
10
26.870162
20
12.552249
11
28.298497
21
13.348580
0
LINE
8
Layer 1
10
28.298497
20
13.348580
11
28.438709
21
13.525416
0
LINE
8
Layer 1
10
28.438709
20
13.525416
11
28.412702
21
13.749590
0
LINE
8
Layer 1
10
28.412702
20
13.749590
11
28.160004
21
13.900485
0
LINE
8
Layer 1
10
28.160004
20
13.900485
11
28.011695
21
13.863279
0
LINE
8
Layer 1
10
28.011695
20
13.863279
11
26.592143
21
13.071596
0
LINE
8
Layer 1
10
26.592143
20
13.071596
11
27.426202
21
14.466340
0
LINE
8
Layer 1
10
27.426202
20
14.466340
11
27.459460
21
14.689656
0
LINE
8
Layer 1
10
27.459460
20
14.689656
11
27.324914
21
14.870967
0
LINE
8
Layer 1
10
27.324914
20
14.870967
11
27.178155
21
14.912308
0
LINE
8
Layer 1
10
27.178155
20
14.912308
11
26.920806
21
14.769166
0
LINE
8
Layer 1
10
26.920806
20
14.769166
11
26.087782
21
13.375454
0
LINE
8
Layer 1
10
26.087782
20
13.375454
11
26.115688
21
15.078189
0
LINE
8
Layer 1
10
26.115688
20
15.078189
11
26.032861
21
15.288141
0
LINE
8
Layer 1
10
26.032861
20
15.288141
11
25.825784
21
15.377914
0
LINE
8
Layer 1
10
25.825784
20
15.377914
11
25.825773
21
15.377924
0
LINE
8
Layer 1
10
26.606603
20
16.868270
11
26.573014
21
16.866153
0
LINE
8
Layer 1
10
26.573014
20
16.866153
11
26.397831
21
16.781402
0
LINE
8
Layer 1
10
26.397831
20
16.781402
11
25.828874
21
16.211929
0
LINE
8
Layer 1
10
25.828874
20
16.211929
11
25.259399
21
16.780886
0
LINE
8
Layer 1
10
25.259399
20
16.780886
11
25.051662
21
16.867185
0
LINE
8
Layer 1
10
25.051662
20
16.867185
11
25.018070
21
16.865068
0
LINE
8
Layer 1
10
25.018070
20
16.865068
11
24.842887
21
16.780836
0
LINE
8
Layer 1
10
24.842887
20
16.780836
11
24.756588
21
16.572580
0
LINE
8
Layer 1
10
24.756588
20
16.572580
11
24.843406
21
16.364324
0
LINE
8
Layer 1
10
24.843406
20
16.364324
11
25.620618
21
15.586595
0
LINE
8
Layer 1
10
25.620618
20
15.586595
11
25.828981
21
15.500657
0
LINE
8
Layer 1
10
25.828981
20
15.500657
11
26.037130
21
15.587125
0
LINE
8
Layer 1
10
26.037130
20
15.587125
11
26.814859
21
16.364856
0
LINE
8
Layer 1
10
26.814859
20
16.364856
11
26.901052
21
16.573110
0
LINE
8
Layer 1
10
26.901052
20
16.573110
11
26.814859
21
16.781365
0
LINE
8
Layer 1
10
26.814859
20
16.781365
11
26.606603
21
16.868183
0
LINE
8
Layer 1
10
26.606603
20
16.868183
11
26.606603
21
16.868270
0
LINE
8
Layer 1
10
22.460608
20
15.439934
11
22.395495
21
15.430118
0
LINE
8
Layer 1
10
22.395495
20
15.430118
11
22.216725
21
15.292864
0
LINE
8
Layer 1
10
22.216725
20
15.292864
11
22.187239
21
15.069418
0
LINE
8
Layer 1
10
22.187239
20
15.069418
11
22.395495
21
14.291689
0
LINE
8
Layer 1
10
22.395495
20
14.291689
11
21.618282
21
14.083433
0
LINE
8
Layer 1
10
21.618282
20
14.083433
11
21.439513
21
13.946178
0
LINE
8
Layer 1
10
21.439513
20
13.946178
11
21.410026
21
13.722733
0
LINE
8
Layer 1
10
21.410026
20
13.722733
11
21.547487
21
13.543933
0
LINE
8
Layer 1
10
21.547487
20
13.543933
11
21.771245
21
13.514477
0
LINE
8
Layer 1
10
21.771245
20
13.514477
11
22.833194
21
13.799213
0
LINE
8
Layer 1
10
22.833194
20
13.799213
11
23.011964
21
13.936468
0
LINE
8
Layer 1
10
23.011964
20
13.936468
11
23.041450
21
14.159914
0
LINE
8
Layer 1
10
23.041450
20
14.159914
11
22.756195
21
15.222381
0
LINE
8
Layer 1
10
22.756195
20
15.222381
11
22.460608
21
15.439937
0
LINE
8
Layer 1
10
22.460608
20
15.439937
11
22.460608
21
15.439934
0
LINE
8
Layer 1
10
21.626550
20
11.145628
11
21.356284
21
10.927553
0
LINE
8
Layer 1
10
21.356284
20
10.927553
11
21.385770
21
10.704108
0
LINE
8
Layer 1
10
21.385770
20
10.704108
11
21.564540
21
10.566853
0
LINE
8
Layer 1
10
21.564540
20
10.566853
11
22.342268
21
10.358597
0
LINE
8
Layer 1
10
22.342268
20
10.358597
11
22.134012
21
9.580868
0
LINE
8
Layer 1
10
22.134012
20
9.580868
11
22.163912
21
9.357602
0
LINE
8
Layer 1
10
22.163912
20
9.357602
11
22.342784
21
9.220683
0
LINE
8
Layer 1
10
22.342784
20
9.220683
11
22.566026
21
9.250140
0
LINE
8
Layer 1
10
22.566026
20
9.250140
11
22.702969
21
9.428939
0
LINE
8
Layer 1
10
22.702969
20
9.428939
11
22.987705
21
10.490888
0
LINE
8
Layer 1
10
22.987705
20
10.490888
11
22.958220
21
10.714335
0
LINE
8
Layer 1
10
22.958220
20
10.714335
11
22.779452
21
10.851589
0
LINE
8
Layer 1
10
22.779452
20
10.851589
11
21.716985
21
11.136328
0
LINE
8
Layer 1
10
21.716985
20
11.136328
11
21.651873
21
11.145615
0
LINE
8
Layer 1
10
21.651873
20
11.145615
11
21.626553
21
11.145615
0
LINE
8
Layer 1
10
21.626553
20
11.145615
11
21.626550
21
11.145628
0
LINE
8
Layer 1
10
25.721388
20
9.056870
11
25.688831
21
9.055282
0
LINE
8
Layer 1
10
25.688831
20
9.055282
11
25.513132
21
8.970533
0
LINE
8
Layer 1
10
25.513132
20
8.970533
11
24.735919
21
8.192805
0
LINE
8
Layer 1
10
24.735919
20
8.192805
11
24.649726
21
7.984548
0
LINE
8
Layer 1
10
24.649726
20
7.984548
11
24.735919
21
7.776293
0
LINE
8
Layer 1
10
24.735919
20
7.776293
11
24.944432
21
7.689842
0
LINE
8
Layer 1
10
24.944432
20
7.689842
11
25.152947
21
7.776293
0
LINE
8
Layer 1
10
25.152947
20
7.776293
11
25.721903
21
8.345766
0
LINE
8
Layer 1
10
25.721903
20
8.345766
11
26.290860
21
7.776809
0
LINE
8
Layer 1
10
26.290860
20
7.776809
11
26.499115
21
7.690616
0
LINE
8
Layer 1
10
26.499115
20
7.690616
11
26.707372
21
7.776809
0
LINE
8
Layer 1
10
26.707372
20
7.776809
11
26.793671
21
7.985065
0
LINE
8
Layer 1
10
26.793671
20
7.985065
11
26.707372
21
8.193321
0
LINE
8
Layer 1
10
26.707372
20
8.193321
11
25.929643
21
8.971049
0
LINE
8
Layer 1
10
25.929643
20
8.971049
11
25.821122
21
9.039780
0
LINE
8
Layer 1
10
25.821122
20
9.039780
11
25.816995
21
9.040838
0
LINE
8
Layer 1
10
25.816995
20
9.040838
11
25.721395
21
9.056846
0
LINE
8
Layer 1
10
25.721395
20
9.056846
11
25.721388
21
9.056870
0
LINE
8
Layer 1
10
25.688831
20
9.055319
11
25.816987
21
9.040846
0
LINE
8
Layer 1
10
25.816987
20
9.040846
11
25.816987
21
9.040846
0
LINE
8
Layer 1
10
25.816987
20
9.040846
11
25.821114
21
9.039788
0
LINE
8
Layer 1
10
25.821114
20
9.039788
11
25.821114
21
9.039788
0
LINE
8
Layer 1
10
25.821114
20
9.039788
11
25.929635
21
8.971057
0
LINE
8
Layer 1
10
25.929635
20
8.971057
11
26.707364
21
8.193329
0
LINE
8
Layer 1
10
26.707364
20
8.193329
11
26.793663
21
7.985073
0
LINE
8
Layer 1
10
26.793663
20
7.985073
11
26.707364
21
7.776817
0
LINE
8
Layer 1
10
26.707364
20
7.776817
11
26.499108
21
7.690624
0
LINE
8
Layer 1
10
26.499108
20
7.690624
11
26.290852
21
7.776817
0
LINE
8
Layer 1
10
26.290852
20
7.776817
11
25.721896
21
8.345774
0
LINE
8
Layer 1
10
25.721896
20
8.345774
11
25.152939
21
7.776301
0
LINE
8
Layer 1
10
25.152939
20
7.776301
11
24.944424
21
7.689850
0
LINE
8
Layer 1
10
24.944424
20
7.689850
11
24.735911
21
7.776301
0
LINE
8
Layer 1
10
24.735911
20
7.776301
11
24.649718
21
7.984556
0
LINE
8
Layer 1
10
24.649718
20
7.984556
11
24.735911
21
8.192813
0
LINE
8
Layer 1
10
24.735911
20
8.192813
11
25.513124
21
8.970541
0
LINE
8
Layer 1
10
25.513124
20
8.970541
11
25.688823
21
9.055290
0
LINE
8
Layer 1
10
25.688823
20
9.055290
11
25.688831
21
9.055319
0
LINE
8
Layer 1
10
9.807649
20
16.627457
11
8.840783
21
16.464162
0
LINE
8
Layer 1
10
8.840783
20
16.464162
11
8.036184
21
15.997006
0
LINE
8
Layer 1
10
8.036184
20
15.997006
11
7.493063
21
15.225477
0
LINE
8
Layer 1
10
7.493063
20
15.225477
11
7.297727
21
14.127873
0
LINE
8
Layer 1
10
7.297727
20
14.127873
11
7.417102
21
13.476234
0
LINE
8
Layer 1
10
7.417102
20
13.476234
11
7.656361
21
12.965155
0
LINE
8
Layer 1
10
7.656361
20
12.965155
11
7.012509
21
12.557763
0
LINE
8
Layer 1
10
7.012509
20
12.557763
11
6.515347
21
12.030846
0
LINE
8
Layer 1
10
6.515347
20
12.030846
11
6.197531
21
11.395303
0
LINE
8
Layer 1
10
6.197531
20
11.395303
11
6.091602
21
10.640235
0
LINE
8
Layer 1
10
6.091602
20
10.640235
11
6.189270
21
9.868705
0
LINE
8
Layer 1
10
6.189270
20
9.868705
11
6.537051
21
9.205697
0
LINE
8
Layer 1
10
6.537051
20
9.205697
11
7.156136
21
8.738544
0
LINE
8
Layer 1
10
7.156136
20
8.738544
11
8.112664
21
8.564912
0
LINE
8
Layer 1
10
8.112664
20
8.564912
11
9.122937
21
8.749395
0
LINE
8
Layer 1
10
9.122937
20
8.749395
11
9.894466
21
9.292515
0
LINE
8
Layer 1
10
9.894466
20
9.292515
11
10.242247
21
8.716841
0
LINE
8
Layer 1
10
10.242247
20
8.716841
11
12.600240
21
8.716841
0
LINE
8
Layer 1
10
12.600240
20
8.716841
11
11.426669
21
10.716199
0
LINE
8
Layer 1
10
11.426669
20
10.716199
11
13.078247
21
12.921745
0
LINE
8
Layer 1
10
13.078247
20
12.921745
11
10.992070
21
12.921745
0
LINE
8
Layer 1
10
10.992070
20
12.921745
11
10.437584
21
12.095957
0
LINE
8
Layer 1
10
10.437584
20
12.095957
11
10.112022
21
12.639593
0
LINE
8
Layer 1
10
10.112022
20
12.639593
11
10.731107
21
13.009078
0
LINE
8
Layer 1
10
10.731107
20
13.009078
11
11.241667
21
13.508788
0
LINE
8
Layer 1
10
11.241667
20
13.508788
11
11.589451
21
14.127873
0
LINE
8
Layer 1
10
11.589451
20
14.127873
11
11.720192
21
14.877696
0
LINE
8
Layer 1
10
11.720192
20
14.877696
11
11.597747
21
15.583952
0
LINE
8
Layer 1
10
11.597747
20
15.583952
11
11.230817
21
16.138082
0
LINE
8
Layer 1
10
11.230817
20
16.138082
11
10.636042
21
16.505013
0
LINE
8
Layer 1
10
10.636042
20
16.505013
11
9.807649
21
16.627457
0
LINE
8
Layer 1
10
9.807649
20
16.627457
11
9.807649
21
16.627457
0
LINE
8
Layer 1
10
4.168208
20
16.583534
11
2.940376
21
16.355640
0
LINE
8
Layer 1
10
2.940376
20
16.355640
11
2.016404
21
15.757744
0
LINE
8
Layer 1
10
2.016404
20
15.757744
11
1.429877
21
14.888549
0
LINE
8
Layer 1
10
1.429877
20
14.888549
11
1.234540
21
13.834868
0
LINE
8
Layer 1
10
1.234540
20
13.834868
11
1.343059
21
13.106746
0
LINE
8
Layer 1
10
1.343059
20
13.106746
11
1.636582
21
12.552260
0
LINE
8
Layer 1
10
1.636582
20
12.552260
11
2.060328
21
12.139365
0
LINE
8
Layer 1
10
2.060328
20
12.139365
11
2.549187
21
11.824656
0
LINE
8
Layer 1
10
2.549187
20
11.824656
11
3.070601
21
11.444318
0
LINE
8
Layer 1
10
3.070601
20
11.444318
11
3.211677
21
11.107388
0
LINE
8
Layer 1
10
3.211677
20
11.107388
11
3.027193
21
10.737903
0
LINE
8
Layer 1
10
3.027193
20
10.737903
11
2.636002
21
10.629382
0
LINE
8
Layer 1
10
2.636002
20
10.629382
11
2.027771
21
10.748753
0
LINE
8
Layer 1
10
2.027771
20
10.748753
11
1.516692
21
11.063980
0
LINE
8
Layer 1
10
1.516692
20
11.063980
11
0.212898
21
9.335923
0
LINE
8
Layer 1
10
0.212898
20
9.335923
11
1.223687
21
8.771099
0
LINE
8
Layer 1
10
1.223687
20
8.771099
11
2.668559
21
8.542690
0
LINE
8
Layer 1
10
2.668559
20
8.542690
11
3.711905
21
8.705988
0
LINE
8
Layer 1
10
3.711905
20
8.705988
11
4.657064
21
9.194847
0
LINE
8
Layer 1
10
4.657064
20
9.194847
11
5.341779
21
10.053191
0
LINE
8
Layer 1
10
5.341779
20
10.053191
11
5.602226
21
11.302724
0
LINE
8
Layer 1
10
5.602226
20
11.302724
11
5.461151
21
12.106810
0
LINE
8
Layer 1
10
5.461151
20
12.106810
11
5.102516
21
12.704704
0
LINE
8
Layer 1
10
5.102516
20
12.704704
11
4.657064
21
13.128450
0
LINE
8
Layer 1
10
4.657064
20
13.128450
11
4.233319
21
13.411120
0
LINE
8
Layer 1
10
4.233319
20
13.411120
11
3.744462
21
13.736681
0
LINE
8
Layer 1
10
3.744462
20
13.736681
11
3.602868
21
14.051908
0
LINE
8
Layer 1
10
3.602868
20
14.051908
11
3.657644
21
14.280317
0
LINE
8
Layer 1
10
3.657644
20
14.280317
11
3.798720
21
14.432246
0
LINE
8
Layer 1
10
3.798720
20
14.432246
11
3.983206
21
14.519061
0
LINE
8
Layer 1
10
3.983206
20
14.519061
11
4.189911
21
14.540757
0
LINE
8
Layer 1
10
4.189911
20
14.540757
11
4.700475
21
14.421385
0
LINE
8
Layer 1
10
4.700475
20
14.421385
11
5.135073
21
14.127865
0
LINE
8
Layer 1
10
5.135073
20
14.127865
11
6.439383
21
15.801662
0
LINE
8
Layer 1
10
6.439383
20
15.801662
11
5.526262
21
16.355632
0
LINE
8
Layer 1
10
5.526262
20
16.355632
11
4.168208
21
16.583526
0
LINE
8
Layer 1
10
4.168208
20
16.583526
11
4.168208
21
16.583534
0
LINE
8
Layer 1
10
14.403746
20
16.409901
11
13.067393
21
8.716841
0
LINE
8
Layer 1
10
13.067393
20
8.716841
11
15.708056
21
8.716841
0
LINE
8
Layer 1
10
15.708056
20
8.716841
11
17.131224
21
8.933881
0
LINE
8
Layer 1
10
17.131224
20
8.933881
11
18.185421
21
9.510071
0
LINE
8
Layer 1
10
18.185421
20
9.510071
11
18.913543
21
10.357565
0
LINE
8
Layer 1
10
18.913543
20
10.357565
11
19.358992
21
11.346134
0
LINE
8
Layer 1
10
19.358992
20
11.346134
11
19.597736
21
12.389478
0
LINE
8
Layer 1
10
19.597736
20
12.389478
11
19.662850
21
13.367197
0
LINE
8
Layer 1
10
19.662850
20
13.367197
11
19.500068
21
14.595544
0
LINE
8
Layer 1
10
19.500068
20
14.595544
11
18.989507
21
15.562407
0
LINE
8
Layer 1
10
18.989507
20
15.562407
11
18.065533
21
16.181492
0
LINE
8
Layer 1
10
18.065533
20
16.181492
11
16.674922
21
16.409901
0
LINE
8
Layer 1
10
16.674922
20
16.409901
11
14.403746
21
16.409901
0
LINE
8
Layer 1
10
9.677424
20
15.084401
11
9.916170
21
14.975364
0
LINE
8
Layer 1
10
9.916170
20
14.975364
11
9.992135
21
14.682359
0
LINE
8
Layer 1
10
9.992135
20
14.682359
11
9.818502
21
14.095316
0
LINE
8
Layer 1
10
9.818502
20
14.095316
11
9.362199
21
13.704124
0
LINE
8
Layer 1
10
9.362199
20
13.704124
11
9.198901
21
13.997648
0
LINE
8
Layer 1
10
9.198901
20
13.997648
11
9.155494
21
14.323725
0
LINE
8
Layer 1
10
9.155494
20
14.323725
11
9.286235
21
14.834288
0
LINE
8
Layer 1
10
9.286235
20
14.834288
11
9.677424
21
15.084401
0
LINE
8
Layer 1
10
9.677424
20
15.084401
11
9.677424
21
15.084401
0
LINE
8
Layer 1
10
16.348844
20
14.421393
11
16.533846
21
14.421393
0
LINE
8
Layer 1
10
16.533846
20
14.421393
11
16.925035
21
14.312874
0
LINE
8
Layer 1
10
16.925035
20
14.312874
11
17.174632
21
14.019351
0
LINE
8
Layer 1
10
17.174632
20
14.019351
11
17.294522
21
13.617309
0
LINE
8
Layer 1
10
17.294522
20
13.617309
11
17.327076
21
13.150154
0
LINE
8
Layer 1
10
17.327076
20
13.150154
11
17.250596
21
12.389478
0
LINE
8
Layer 1
10
17.250596
20
12.389478
11
17.022703
21
11.585394
0
LINE
8
Layer 1
10
17.022703
20
11.585394
11
16.588104
21
10.954943
0
LINE
8
Layer 1
10
16.588104
20
10.954943
11
15.914246
21
10.705346
0
LINE
8
Layer 1
10
15.914246
20
10.705346
11
15.708056
21
10.705346
0
LINE
8
Layer 1
10
15.708056
20
10.705346
11
16.348844
21
14.421393
0
LINE
8
Layer 1
10
8.514706
20
11.704766
11
9.112086
21
10.640235
0
LINE
8
Layer 1
10
9.112086
20
10.640235
11
8.884193
21
10.422676
0
LINE
8
Layer 1
10
8.884193
20
10.422676
11
8.547263
21
10.335861
0
LINE
8
Layer 1
10
8.547263
20
10.335861
11
8.156071
21
10.520344
0
LINE
8
Layer 1
10
8.156071
20
10.520344
11
8.036184
21
10.911536
0
LINE
8
Layer 1
10
8.036184
20
10.911536
11
8.177778
21
11.400911
0
LINE
8
Layer 1
10
8.177778
20
11.400911
11
8.514706
21
11.704766
0
LINE
8
Layer 1
10
8.514706
20
11.704766
11
8.514706
21
11.704766
 0 
ENDSEC
 0 
EOF