<?xml version="1.0" encoding="UTF-8" standalone="no"?>
<!-- Created with Inkscape (http://www.inkscape.org/) -->

<svg
   width="1.1955569in"
   height="0.66410351in"
   viewBox="0 0 114.77346 63.753937"
   version="1.1"
   id="svg1"
   xml:space="preserve"
   sodipodi:docname="S&amp;D_logo_short.svg"
   inkscape:export-filename="S&amp;D_logo_short.svg"
   inkscape:export-xdpi="96"
   inkscape:export-ydpi="96"
   inkscape:version="1.4 (e7c3feb1, 2024-10-09)"
   xmlns:inkscape="http://www.inkscape.org/namespaces/inkscape"
   xmlns:sodipodi="http://sodipodi.sourceforge.net/DTD/sodipodi-0.dtd"
   xmlns="http://www.w3.org/2000/svg"
   xmlns:svg="http://www.w3.org/2000/svg"><sodipodi:namedview
     id="namedview1"
     pagecolor="#ffffff"
     bordercolor="#000000"
     borderopacity="0.25"
     inkscape:showpageshadow="2"
     inkscape:pageopacity="0.0"
     inkscape:pagecheckerboard="0"
     inkscape:deskcolor="#d1d1d1"
     inkscape:document-units="in"
     showgrid="false"
     inkscape:zoom="4.7121285"
     inkscape:cx="65.787679"
     inkscape:cy="40.215372"
     inkscape:window-width="1512"
     inkscape:window-height="916"
     inkscape:window-x="2560"
     inkscape:window-y="1478"
     inkscape:window-maximized="1"
     inkscape:current-layer="layer1" /><defs
     id="defs1"><marker
       style="overflow:visible"
       id="marker13-97-6"
       refX="0"
       refY="0"
       orient="auto"
       markerWidth="0.5"
       markerHeight="0.5"
       viewBox="0 0 1 1"
       preserveAspectRatio="xMidYMid"><path
         transform="scale(0.5)"
         style="fill:context-stroke;fill-rule:evenodd;stroke:none"
         d="M 5,0 C 5,2.76 2.76,5 0,5 -2.76,5 -5,2.76 -5,0 c 0,-2.76 2.3,-5 5,-5 2.76,0 5,2.24 5,5 z"
         id="path13-4-4" /></marker><marker
       style="overflow:visible"
       id="Dot-2-6"
       refX="0"
       refY="0"
       orient="auto"
       markerWidth="0.5"
       markerHeight="0.5"
       viewBox="0 0 1 1"
       preserveAspectRatio="xMidYMid"><path
         transform="scale(0.5)"
         style="fill:context-stroke;fill-rule:evenodd;stroke:none"
         d="M 5,0 C 5,2.76 2.76,5 0,5 -2.76,5 -5,2.76 -5,0 c 0,-2.76 2.3,-5 5,-5 2.76,0 5,2.24 5,5 z"
         id="path17-02-4" /></marker><marker
       style="overflow:visible"
       id="marker13-3"
       refX="0"
       refY="0"
       orient="auto"
       markerWidth="0.5"
       markerHeight="0.5"
       viewBox="0 0 1 1"
       preserveAspectRatio="xMidYMid"><path
         transform="scale(0.5)"
         style="fill:context-stroke;fill-rule:evenodd;stroke:none"
         d="M 5,0 C 5,2.76 2.76,5 0,5 -2.76,5 -5,2.76 -5,0 c 0,-2.76 2.3,-5 5,-5 2.76,0 5,2.24 5,5 z"
         id="path13-80" /></marker><marker
       style="overflow:visible"
       id="Dot-24"
       refX="0"
       refY="0"
       orient="auto"
       markerWidth="0.5"
       markerHeight="0.5"
       viewBox="0 0 1 1"
       preserveAspectRatio="xMidYMid"><path
         transform="scale(0.5)"
         style="fill:context-stroke;fill-rule:evenodd;stroke:none"
         d="M 5,0 C 5,2.76 2.76,5 0,5 -2.76,5 -5,2.76 -5,0 c 0,-2.76 2.3,-5 5,-5 2.76,0 5,2.24 5,5 z"
         id="path17-8" /></marker></defs><g
     id="layer1"
     transform="translate(621.98632,485.29297)"><path
       d=""
       style="fill:context-stroke;fill-rule:evenodd;stroke-width:0.25"
       id="path52" /><path
       d="m -543.41602,-455.26367 c -2.66929,3e-4 -4.8328,2.16469 -4.83203,4.83398 0.003,1.94025 1.16563,3.69073 2.95313,4.44531 v 9.44727 c -9.8822,-4.60014 -22.40221,-8.45966 -36.46485,-8.31836 -34.28454,0.3445 -40.22656,23.08203 -40.22656,23.08203 h 99.6543 c 0,0 -2.97557,-2.73965 -8.17774,-6.31054 v -10.29688 c 1.78334,-0.69728 2.95964,-2.41333 2.9668,-4.32812 4e-5,-2.57699 -2.08903,-4.66606 -4.66601,-4.66602 -2.57699,-4e-5 -4.66606,2.08903 -4.66602,4.66602 0.0115,1.82804 1.08956,3.48095 2.75781,4.22851 v 8.03516 c -2.21744,-1.38924 -4.66982,-2.82355 -7.41797,-4.24414 v -11.29688 c 1.78608,-0.75491 2.94798,-2.5043 2.95118,-4.44336 7.7e-4,-2.66929 -2.16274,-4.83368 -4.83204,-4.83398 z"
       style="stroke-linecap:round;stroke-linejoin:bevel;paint-order:markers fill stroke"
       id="path53" /><path
       d=""
       style="fill:context-stroke;fill-rule:evenodd;stroke-width:0.25"
       id="path49" /><path
       d=""
       style="stroke-linecap:round;stroke-linejoin:bevel;paint-order:markers fill stroke"
       id="path200" /><path
       d=""
       style="stroke-linecap:round;stroke-linejoin:bevel;paint-order:markers fill stroke"
       id="path198" /><path
       d="m -508.33789,-471.79297 c -0.29523,1.1e-4 -0.57834,0.11743 -0.78711,0.32617 l -2.93945,2.93946 c -0.43436,0.43485 -0.43436,1.13937 0,1.57421 l 2.93945,2.93946 c 0.43485,0.43436 1.13937,0.43436 1.57422,0 0.43566,-0.43508 0.43566,-1.1411 0,-1.57617 l -2.15234,-2.15039 2.15234,-2.15235 c 0.43436,-0.43485 0.43436,-1.13936 0,-1.57422 -0.20877,-0.20874 -0.49188,-0.32606 -0.78711,-0.32617 z"
       style="stroke-linecap:round;stroke-linejoin:bevel;paint-order:markers fill stroke"
       id="path214" /><path
       d=""
       style="stroke-linecap:round;stroke-linejoin:bevel;paint-order:markers fill stroke"
       id="path196" /><path
       d=""
       style="stroke-linecap:round;stroke-linejoin:bevel;paint-order:markers fill stroke"
       id="path194" /><path
       d=""
       style="stroke-linecap:round;stroke-linejoin:bevel;paint-order:markers fill stroke"
       id="path192" /><path
       d="m -518.85937,-484.48047 c -0.0838,0.003 -0.16703,0.0154 -0.24805,0.0371 -0.28491,0.0762 -0.52794,0.26238 -0.67578,0.51758 -0.14787,0.25596 -0.18792,0.5602 -0.11133,0.8457 l 1.07617,4.01563 c 0.15942,0.59357 0.76952,0.94583 1.36328,0.78711 l 4.01563,-1.07618 c 0.59357,-0.15941 0.94583,-0.76951 0.78711,-1.36328 -0.13407,-0.50313 -0.59884,-0.84623 -1.11914,-0.82617 -0.0832,0.003 -0.16571,0.0156 -0.2461,0.0371 l -2.93945,0.78711 -0.78711,-2.9375 c -0.13451,-0.50089 -0.59693,-0.84264 -1.11523,-0.82422 z"
       style="stroke-linecap:round;stroke-linejoin:bevel;paint-order:markers fill stroke"
       id="path203" /><path
       d=""
       style="stroke-linecap:round;stroke-linejoin:bevel;paint-order:markers fill stroke"
       id="path190" /><path
       d=""
       style="stroke-linecap:round;stroke-linejoin:bevel;paint-order:markers fill stroke"
       id="path188" /><path
       d=""
       style="stroke-linecap:round;stroke-linejoin:bevel;paint-order:markers fill stroke"
       id="path186" /><path
       d="m -530.01367,-484.6875 c -0.47979,0.0227 -0.89509,0.35326 -1.02149,0.82422 l -0.78711,2.93945 -2.9375,-0.78711 c -0.0804,-0.0215 -0.16293,-0.034 -0.24609,-0.0371 -0.0324,-10e-4 -0.0638,-0.002 -0.0957,0 -0.47908,0.0235 -0.89524,0.35395 -1.02149,0.82422 -0.076,0.2849 -0.036,0.58833 0.11133,0.84375 0.14785,0.2552 0.39088,0.44133 0.67578,0.51758 l 4.01367,1.07812 c 0.59377,0.15873 1.20387,-0.19353 1.36329,-0.7871 l 1.07617,-4.01563 c 0.15872,-0.59376 -0.19354,-1.20387 -0.78711,-1.36328 -0.0804,-0.0215 -0.16294,-0.034 -0.2461,-0.0371 -0.0325,-0.001 -0.0657,-0.002 -0.0976,0 z"
       style="stroke-linecap:round;stroke-linejoin:bevel;paint-order:markers fill stroke"
       id="path205" /><path
       d=""
       style="stroke-linecap:round;stroke-linejoin:bevel;paint-order:markers fill stroke"
       id="path184" /><path
       d=""
       style="stroke-linecap:round;stroke-linejoin:bevel;paint-order:markers fill stroke"
       id="path182" /><path
       d=""
       style="stroke-linecap:round;stroke-linejoin:bevel;paint-order:markers fill stroke"
       id="path180" /><path
       d="m -540.79492,-472.20703 c -0.0419,-2e-5 -0.0849,0.003 -0.12695,0.008 -0.25036,0.0282 -0.48377,0.14041 -0.66211,0.31836 -0.43567,0.43508 -0.43567,1.1411 0,1.57617 l 2.15039,2.15039 -2.15039,2.15235 c -0.43436,0.43485 -0.43436,1.13936 0,1.57422 0.20877,0.20874 0.49188,0.32606 0.78711,0.32617 0.29521,-1.1e-4 0.57833,-0.11743 0.7871,-0.32617 l 2.93946,-2.93946 c 0.10859,-0.10871 0.18984,-0.23514 0.24414,-0.36914 0.13491,-0.33458 0.10169,-0.72313 -0.10156,-1.03125 -0.0405,-0.0613 -0.0887,-0.11983 -0.14258,-0.17383 l -2.93946,-2.93945 c -0.20982,-0.2094 -0.4921,-0.32601 -0.78515,-0.32617 z"
       style="stroke-linecap:round;stroke-linejoin:bevel;paint-order:markers fill stroke"
       id="path207" /><path
       d=""
       style="stroke-linecap:round;stroke-linejoin:bevel;paint-order:markers fill stroke"
       id="path178" /><path
       d=""
       style="stroke-linecap:round;stroke-linejoin:bevel;paint-order:markers fill stroke"
       id="path176" /><path
       d=""
       style="stroke-linecap:round;stroke-linejoin:bevel;paint-order:markers fill stroke"
       id="path174" /><path
       d=""
       style="stroke-linecap:round;stroke-linejoin:bevel;paint-order:markers fill stroke"
       id="path172" /><path
       d="m -531.43359,-457.6543 c -0.0832,0.003 -0.16571,0.0156 -0.2461,0.0371 l -4.01562,1.07617 c -0.59358,0.15942 -0.94583,0.76952 -0.78711,1.36329 0.15852,0.59534 0.77024,0.9489 1.36523,0.78906 l 2.9375,-0.78711 0.78711,2.9375 c 0.15942,0.59358 0.76952,0.94583 1.36328,0.78711 0.28491,-0.0762 0.52794,-0.26238 0.67578,-0.51758 0.14787,-0.25596 0.18792,-0.5602 0.11133,-0.8457 l -1.07422,-4.01563 c -0.0673,-0.25081 -0.21647,-0.46165 -0.41406,-0.60742 -0.0988,-0.0729 -0.20958,-0.12882 -0.32812,-0.16602 -0.11855,-0.0372 -0.24525,-0.0556 -0.375,-0.0508 z"
       style="stroke-linecap:round;stroke-linejoin:bevel;paint-order:markers fill stroke"
       id="path211" /><path
       d="m -531.43359,-457.6543 c 0.51902,-0.0194 0.98252,0.3226 1.11718,0.82422 l 1.07422,4.01563 c 0.0766,0.2855 0.0365,0.58974 -0.11133,0.8457 -0.14784,0.2552 -0.39087,0.44138 -0.67578,0.51758 -0.59376,0.15872 -1.20386,-0.19353 -1.36328,-0.78711 l -0.78711,-2.9375 -2.9375,0.78711 c -0.59499,0.15984 -1.20671,-0.19372 -1.36523,-0.78906 -0.15872,-0.59377 0.19353,-1.20387 0.78711,-1.36329 l 4.01562,-1.07617 c 0.0804,-0.0215 0.1629,-0.0341 0.2461,-0.0371 z"
       style="stroke-linecap:round;stroke-linejoin:bevel;paint-order:markers fill stroke"
       id="path209" /><path
       d=""
       style="stroke-linecap:round;stroke-linejoin:bevel;paint-order:markers fill stroke"
       id="path169" /><path
       d=""
       style="stroke-linecap:round;stroke-linejoin:bevel;paint-order:markers fill stroke"
       id="path167" /><path
       d="m -509.13672,-463.31445 c -0.0274,-2e-4 -0.0545,6e-5 -0.082,0.002 -0.0726,0.005 -0.14455,0.0165 -0.21484,0.0352 l -4.01368,1.07617 c -0.59357,0.15941 -0.94583,0.76952 -0.7871,1.36328 l 1.07617,4.01562 c 0.16028,0.59279 0.77011,0.94401 1.36328,0.78516 0.59437,-0.15855 0.94765,-0.76892 0.78906,-1.36328 l -0.78906,-2.93945 2.9375,-0.78711 c 0.59357,-0.15942 0.94583,-0.76952 0.78711,-1.36328 -0.0763,-0.28491 -0.26239,-0.52794 -0.51758,-0.67579 -0.16724,-0.0965 -0.3567,-0.14704 -0.54883,-0.14843 z"
       style="stroke-linecap:round;stroke-linejoin:bevel;paint-order:markers fill stroke"
       id="path213" /><path
       d=""
       style="stroke-linecap:round;stroke-linejoin:bevel;paint-order:markers fill stroke"
       id="path165" /><path
       d=""
       style="stroke-linecap:round;stroke-linejoin:bevel;paint-order:markers fill stroke"
       id="path163" /><path
       d=""
       style="stroke-linecap:round;stroke-linejoin:bevel;paint-order:markers fill stroke"
       id="path161" /><path
       d=""
       style="stroke-linecap:round;stroke-linejoin:bevel;paint-order:markers fill stroke"
       id="path159" /><path
       d="m -511.89062,-479.54492 c -0.19169,0.002 -0.38031,0.0537 -0.54688,0.15039 -0.25594,0.14746 -0.44281,0.39054 -0.51953,0.67578 l -1.07422,4.01367 c -0.15872,0.59376 0.19353,1.20387 0.78711,1.36328 l 4.01562,1.07617 c 0.59436,0.1586 1.20474,-0.19469 1.36329,-0.78906 0.15858,-0.59435 -0.1947,-1.20473 -0.78907,-1.36328 l -2.93945,-0.78711 0.78711,-2.93945 c 0.15747,-0.59313 -0.19451,-1.20189 -0.78711,-1.36133 -0.0702,-0.0194 -0.14219,-0.0318 -0.21484,-0.0371 -0.0275,-0.002 -0.0547,-0.002 -0.082,-0.002 z"
       style="stroke-linecap:round;stroke-linejoin:bevel;paint-order:markers fill stroke"
       id="path216" /><path
       d="m -511.89062,-479.54492 c 0.0273,0 0.0545,-5e-5 0.082,0.002 0.0727,0.005 0.14464,0.0177 0.21484,0.0371 0.5926,0.15944 0.94458,0.7682 0.78711,1.36133 l -0.78711,2.93945 2.93945,0.78711 c 0.59437,0.15855 0.94765,0.76893 0.78907,1.36328 -0.15855,0.59437 -0.76893,0.94766 -1.36329,0.78906 l -4.01562,-1.07617 c -0.59358,-0.15941 -0.94583,-0.76952 -0.78711,-1.36328 l 1.07422,-4.01367 c 0.0767,-0.28524 0.26359,-0.52832 0.51953,-0.67578 0.16657,-0.0967 0.35519,-0.14839 0.54688,-0.15039 z"
       style="stroke-linecap:round;stroke-linejoin:bevel;paint-order:markers fill stroke"
       id="path215" /><path
       d=""
       style="stroke-linecap:round;stroke-linejoin:bevel;paint-order:markers fill stroke"
       id="path157" /><path
       d="m -524.37695,-479.66016 c -0.61477,-0.01 -1.12096,0.48094 -1.13086,1.09571 l -0.10547,6.43945 -3.12695,-5.62891 c -0.19284,-0.34836 -0.55697,-0.56728 -0.95508,-0.57422 -0.19597,-0.003 -0.38933,0.0453 -0.56055,0.14063 -0.53682,0.29908 -0.72997,0.97644 -0.43164,1.51367 l 3.14258,5.66016 -5.29492,-3.14649 c -0.16799,-0.0998 -0.35929,-0.15373 -0.55469,-0.15625 -0.39765,-0.005 -0.76762,0.20302 -0.9707,0.54493 -0.31516,0.52852 -0.14198,1.21247 0.38671,1.52734 l 5.26172,3.12695 -6.12109,-0.0781 c -0.61476,-0.007 -1.11918,0.48485 -1.12695,1.09961 -0.008,0.61476 0.48289,1.12006 1.09765,1.1289 l 6.17969,0.0801 -5.63672,3.20508 c -0.53343,0.30459 -0.71955,0.98355 -0.41601,1.51758 0.30324,0.53485 0.98252,0.72281 1.51757,0.41992 l 5.58594,-3.17774 -3.25,5.54493 c -0.31048,0.53073 -0.13213,1.21266 0.39844,1.52343 0.53022,0.31082 1.212,0.13338 1.52344,-0.39648 l 3.24609,-5.5332 -0.0527,6.13281 c -0.006,0.61551 0.488,1.11936 1.10351,1.125 0.61475,0.005 1.11741,-0.48877 1.12305,-1.10352 l 0.0547,-6.23828 c 7.35899,12.81635 14.04491,26.37399 14.04492,41.25977 -6.5e-4,0.59 0.49977,1.06856 1.11719,1.06836 0.61662,-8.3e-4 1.11588,-0.47909 1.11523,-1.06836 0,-15.44519 -6.85907,-29.29944 -14.24609,-42.16406 l 5.375,3.24218 c 0.52639,0.3182 1.21107,0.14943 1.52929,-0.37695 0.31785,-0.52691 0.14818,-1.21173 -0.3789,-1.5293 l -5.4961,-3.3164 6.41797,0.125 c 0.61479,0.0117 1.12275,-0.47702 1.13477,-1.0918 0.0117,-0.61479 -0.47702,-1.12274 -1.0918,-1.13477 l -6.46094,-0.12695 5.39844,-3.00976 c 0.53798,-0.29913 0.7313,-0.97794 0.43164,-1.51563 -0.19384,-0.34686 -0.55778,-0.56418 -0.95508,-0.57031 -0.19596,-0.003 -0.38932,0.0452 -0.56054,0.14062 l -5.36524,2.99219 3.15235,-5.27148 c 0.31715,-0.52793 0.14566,-1.21305 -0.38282,-1.5293 -0.16798,-0.0998 -0.35928,-0.15373 -0.55468,-0.15625 -0.39756,-0.006 -0.76825,0.2 -0.97266,0.54101 l -3.14844,5.26758 0.10547,-6.43554 c 0.0106,-0.61553 -0.48016,-1.12292 -1.0957,-1.13282 z"
       style="stroke-linecap:round;stroke-linejoin:bevel;paint-order:markers fill stroke"
       id="path202" /><path
       d=""
       style="stroke-linecap:round;stroke-linejoin:bevel;paint-order:markers fill stroke"
       id="path155" /><path
       d="m -521.42578,-485.29297 c -0.042,-3e-5 -0.0848,0.003 -0.12695,0.008 -0.25061,0.0287 -0.48405,0.14165 -0.66211,0.32032 l -2.15039,2.15234 -2.15235,-2.15039 c -0.20982,-0.2094 -0.49211,-0.32601 -0.78515,-0.32617 -0.0419,-3e-5 -0.0849,0.003 -0.12696,0.008 -0.25036,0.0282 -0.48376,0.14041 -0.66211,0.31836 -0.20874,0.20877 -0.32606,0.49188 -0.32617,0.78711 6.3e-4,0.29551 0.11866,0.57866 0.32813,0.78711 l 2.9375,2.93945 c 0.43539,0.43382 1.1399,0.433 1.57422,-0.002 l 2.93945,-2.93946 c 0.43436,-0.43485 0.43436,-1.13936 0,-1.57421 -0.2099,-0.21053 -0.49325,-0.32788 -0.78711,-0.32813 z"
       style="stroke-linecap:round;stroke-linejoin:bevel;paint-order:markers fill stroke"
       id="path204" /><path
       d=""
       style="stroke-linecap:round;stroke-linejoin:bevel;paint-order:markers fill stroke"
       id="path153" /><path
       d=""
       style="stroke-linecap:round;stroke-linejoin:bevel;paint-order:markers fill stroke"
       id="path151" /><path
       d=""
       style="stroke-linecap:round;stroke-linejoin:bevel;paint-order:markers fill stroke"
       id="path149" /><path
       d="m -537.0957,-479.89453 c -0.0832,0.003 -0.16571,0.0156 -0.2461,0.0371 -0.59357,0.15941 -0.94583,0.76952 -0.78711,1.36328 l 0.78711,2.93945 -2.9375,0.78711 c -0.59357,0.15942 -0.94583,0.76952 -0.78711,1.36328 0.0767,0.28524 0.2636,0.52833 0.51954,0.67578 0.25594,0.14787 0.56019,0.18792 0.8457,0.11133 l 4.01367,-1.07617 c 0.59358,-0.15941 0.94583,-0.76952 0.78711,-1.36328 l -1.07813,-4.01563 c -0.13542,-0.50084 -0.59872,-0.84184 -1.11718,-0.82226 z"
       style="stroke-linecap:round;stroke-linejoin:bevel;paint-order:markers fill stroke"
       id="path206" /><path
       d=""
       style="stroke-linecap:round;stroke-linejoin:bevel;paint-order:markers fill stroke"
       id="path147" /><path
       d=""
       style="stroke-linecap:round;stroke-linejoin:bevel;paint-order:markers fill stroke"
       id="path145" /><path
       d=""
       style="stroke-linecap:round;stroke-linejoin:bevel;paint-order:markers fill stroke"
       id="path143" /><path
       d="m -540.24805,-463.66406 c -0.47907,0.0235 -0.89523,0.35395 -1.02148,0.82422 -0.15872,0.59376 0.19353,1.20386 0.78711,1.36328 l 2.93945,0.78711 -0.78711,2.93945 c -0.15734,0.59372 0.19567,1.20275 0.78906,1.36133 0.2849,0.076 0.58833,0.036 0.84375,-0.11133 0.2552,-0.14785 0.44134,-0.39088 0.51758,-0.67578 l 1.07617,-4.01367 c 0.15872,-0.59377 -0.19353,-1.20387 -0.7871,-1.36328 l -4.01563,-1.07618 c -0.0805,-0.0209 -0.16301,-0.0326 -0.24609,-0.0351 -0.0324,-10e-4 -0.0638,-0.002 -0.0957,0 z"
       style="stroke-linecap:round;stroke-linejoin:bevel;paint-order:markers fill stroke"
       id="path208" /><path
       d=""
       style="stroke-linecap:round;stroke-linejoin:bevel;paint-order:markers fill stroke"
       id="path141" /><path
       d=""
       style="stroke-linecap:round;stroke-linejoin:bevel;paint-order:markers fill stroke"
       id="path139" /><path
       d=""
       style="stroke-linecap:round;stroke-linejoin:bevel;paint-order:markers fill stroke"
       id="path137" /><path
       d=""
       style="stroke-linecap:round;stroke-linejoin:bevel;paint-order:markers fill stroke"
       id="path135" /><path
       d="m -524.77148,-455.76953 c -0.0409,-9e-5 -0.0822,10e-4 -0.12305,0.006 -0.2513,0.0283 -0.48549,0.14125 -0.66406,0.32031 l -2.9375,2.93945 c -0.43436,0.43486 -0.43436,1.13937 0,1.57422 0.43507,0.43566 1.14109,0.43566 1.57617,0 l 2.15039,-2.15234 2.15039,2.15039 c 0.43485,0.43436 1.13936,0.43436 1.57422,0 0.20875,-0.20877 0.32606,-0.49188 0.32617,-0.78711 -1.1e-4,-0.29523 -0.11742,-0.57834 -0.32617,-0.78711 l -2.93945,-2.93945 c -0.11596,-0.1157 -0.256,-0.20439 -0.41016,-0.25977 -0.005,-0.002 -0.0106,-0.002 -0.0156,-0.004 -0.11658,-0.0403 -0.23853,-0.0603 -0.36132,-0.0605 z"
       style="stroke-linecap:round;stroke-linejoin:bevel;paint-order:markers fill stroke"
       id="path212" /><path
       d="m -524.89453,-455.76367 a 1.1137741,1.1137741 0 0 1 0.48437,0.0547 c 0,0 0,0 0,0 a 1.1137741,1.1137741 0 0 1 0.0156,0.004 c 0,0 0,0 0,0 a 1.1137741,1.1137741 0 0 1 0.41016,0.25977 l 2.93945,2.93945 a 1.1137741,1.1137741 0 0 1 0.32617,0.78711 1.1137741,1.1137741 0 0 1 -0.32617,0.78711 1.1137741,1.1137741 0 0 1 -1.57422,0 l -2.15039,-2.15039 -2.15039,2.15234 c -0.43508,0.43566 -1.1411,0.43566 -1.57617,0 -0.43436,-0.43485 -0.43436,-1.13936 0,-1.57422 l 2.9375,-2.93945 a 1.1137741,1.1137741 0 0 1 0.66406,-0.32031 z"
       style="stroke-linecap:round;stroke-linejoin:bevel;paint-order:markers fill stroke"
       id="path210" /><path
       d="m -584.91797,-484.38281 c -1.28681,0 -2.50438,0.2065 -3.6543,0.61718 -1.14992,0.38331 -2.16488,0.97164 -3.04101,1.76563 -0.84875,0.76661 -1.53254,1.73872 -2.05274,2.91602 -0.49282,1.1773 -0.73828,2.56045 -0.73828,4.14843 0,0.82137 0.15,1.64152 0.45118,2.46289 0.30116,0.794 0.60313,1.43882 0.90429,1.93164 -1.80701,0.87613 -3.24472,2.05279 -4.3125,3.53125 -1.06778,1.45109 -1.60156,3.20244 -1.60156,5.25586 0,0.98564 0.12273,1.95775 0.36914,2.91602 0.27379,0.93089 0.71211,1.76663 1.31445,2.50586 0.60234,0.71185 1.38159,1.30018 2.33985,1.76562 0.98564,0.43806 2.19152,0.65625 3.61523,0.65625 1.39633,0 2.66844,-0.23182 3.81836,-0.69726 1.14992,-0.49283 2.12203,-1.17661 2.91602,-2.05274 l 1.31445,2.17578 h 8.91211 l -4.43555,-7.55664 6.24219,-8.33593 h -7.88477 l -2.0957,3.12109 -1.23047,-2.05469 c 0.82138,-0.3833 1.60061,-0.8489 2.33985,-1.39648 0.73923,-0.54758 1.3821,-1.17681 1.92968,-1.88867 0.54758,-0.71186 0.98591,-1.4911 1.31446,-2.33985 0.32854,-0.87612 0.49414,-1.82095 0.49414,-2.83398 0,-1.97129 -0.61756,-3.559 -1.84961,-4.76367 -1.20468,-1.23206 -2.99694,-1.84961 -5.37891,-1.84961 z m -21.31445,0.16601 c -1.72488,0 -3.27168,0.28637 -4.64063,0.86133 -1.36895,0.54758 -2.53392,1.30151 -3.49218,2.25977 -0.95827,0.93088 -1.6966,2.02572 -2.2168,3.28515 -0.49282,1.25944 -0.73828,2.5861 -0.73828,3.98242 0,1.0404 0.13637,1.95796 0.41015,2.75196 0.2738,0.79399 0.64394,1.49337 1.10938,2.0957 0.46544,0.57496 0.99922,1.0951 1.60156,1.56055 0.60234,0.43806 1.21794,0.83352 1.84766,1.18945 0.95826,0.54758 1.61477,1.02681 1.9707,1.4375 0.35593,0.38331 0.5332,0.808 0.5332,1.27344 0,0.62972 -0.23182,1.09532 -0.69726,1.39648 -0.43807,0.2738 -0.93094,0.41016 -1.47852,0.41016 -0.76661,0 -1.53222,-0.15 -2.29883,-0.45117 -0.73923,-0.32855 -1.38406,-0.72597 -1.93164,-1.19141 l -4.92773,6.53125 c 0.93089,0.84875 2.20495,1.55981 3.82031,2.13477 1.64274,0.57496 3.46227,0.86328 5.46094,0.86328 1.31419,0 2.62917,-0.2065 3.94336,-0.61719 1.34157,-0.38331 2.53186,-0.99891 3.57226,-1.84766 1.06778,-0.84874 1.93079,-1.92994 2.5879,-3.24414 0.65709,-1.31419 0.98437,-2.88826 0.98437,-4.72265 0,-1.14992 -0.17728,-2.16294 -0.5332,-3.03907 -0.35593,-0.87612 -0.80789,-1.63004 -1.35547,-2.25976 -0.5202,-0.62971 -1.08126,-1.1635 -1.6836,-1.60156 -0.57496,-0.43806 -1.10874,-0.79457 -1.60156,-1.06836 -0.87612,-0.5202 -1.49173,-0.9293 -1.84765,-1.23047 -0.35593,-0.30117 -0.53516,-0.69859 -0.53516,-1.19141 0,-0.35592 0.0701,-0.64425 0.20703,-0.86328 0.13689,-0.24641 0.31417,-0.43732 0.5332,-0.57422 0.21904,-0.1643 0.45086,-0.27339 0.69727,-0.32812 0.27379,-0.0547 0.53484,-0.082 0.78125,-0.082 0.62971,0 1.27259,0.15 1.92969,0.45117 0.65709,0.30116 1.20451,0.67131 1.64258,1.10937 l 4.92968,-6.32617 c -0.79399,-0.84875 -1.94532,-1.54617 -3.45117,-2.09375 -1.50584,-0.57496 -3.21628,-0.86133 -5.13281,-0.86133 z m 38.68555,0.65625 -5.05079,29.07617 h 9.98047 c 2.05342,10e-6 3.84568,-0.27273 5.37891,-0.82031 1.5606,-0.54758 2.88921,-1.27423 3.98437,-2.17773 1.12254,-0.93089 2.0401,-1.99845 2.75196,-3.20313 0.71185,-1.20467 1.2729,-2.44951 1.68359,-3.73633 0.43807,-1.31419 0.73807,-2.62916 0.90234,-3.94335 0.16428,-1.3142 0.2461,-2.5454 0.2461,-3.69532 0,-1.69749 -0.20455,-3.24624 -0.61524,-4.64258 -0.3833,-1.4237 -1.02618,-2.64127 -1.92968,-3.65429 -0.87613,-1.01303 -2.0411,-1.79227 -3.49219,-2.33985 -1.42371,-0.57496 -3.17505,-0.86328 -5.25586,-0.86328 z m -17.86329,5.00977 c 0.41069,0 0.71069,0.13831 0.90235,0.41211 0.19165,0.27378 0.28711,0.64197 0.28711,1.10742 0,0.79399 -0.21819,1.53427 -0.65625,2.21875 -0.43807,0.65709 -1.01276,1.14997 -1.72461,1.47852 -0.30118,-0.35593 -0.50768,-0.72607 -0.61719,-1.10938 -0.10951,-0.38331 -0.16406,-0.79436 -0.16406,-1.23242 0,-0.6571 0.16559,-1.29998 0.49414,-1.92969 0.35592,-0.62972 0.8488,-0.94531 1.47851,-0.94531 z m 25.21485,2.50586 h 0.69922 c 0.60234,0 1.09521,0.13636 1.47851,0.41015 0.41069,0.27379 0.72433,0.64394 0.94336,1.10938 0.21903,0.43807 0.37099,0.94457 0.45313,1.51953 0.0821,0.57496 0.12304,1.16329 0.12304,1.76563 0,0.84875 -0.0974,1.80722 -0.28906,2.875 -0.16427,1.06778 -0.45064,2.08079 -0.86133,3.03906 -0.41068,0.93088 -0.9581,1.72572 -1.64258,2.38281 -0.68447,0.62972 -1.53385,0.94336 -2.54687,0.94336 h -0.7793 z m -29.60938,10.26758 2.25782,4.02343 c -0.21904,0.30117 -0.50541,0.57586 -0.86133,0.82227 -0.35593,0.21903 -0.78062,0.32812 -1.27344,0.32812 -0.65709,0 -1.14996,-0.23181 -1.47852,-0.69726 -0.30116,-0.46544 -0.45312,-0.95832 -0.45312,-1.47852 0,-0.71186 0.17923,-1.32941 0.53516,-1.84961 0.35592,-0.5202 0.78061,-0.90203 1.27343,-1.14843 z"
       style="-inkscape-font-specification:'Avenir Next Condensed,  Heavy Italic Condensed';stroke-width:2.46411;stroke-linecap:square;stroke-linejoin:round;stroke-dasharray:2.46411, 29.5693;paint-order:markers fill stroke"
       id="path54" /></g></svg>
